<svg width="95" height="126" viewBox="0 0 95 126" fill="none" xmlns="http://www.w3.org/2000/svg">
<path fill-rule="evenodd" clip-rule="evenodd" d="M94.6857 4.0047C94.6857 1.08632 91.6614 -0.849665 89.0111 0.372116L26.0554 29.3943C24.9749 29.8923 24.1723 30.8455 23.8654 31.9949L0.25282 120.426C-0.425316 122.966 1.48876 125.458 4.11742 125.458H90.6857C92.8949 125.458 94.6857 123.667 94.6857 121.458V4.0047ZM78.8617 21.1736C79.0266 18.2059 76.0118 16.1014 73.2828 17.2791L33.665 34.3774C32.5103 34.8757 31.6572 35.8881 31.3619 37.1105L15.1732 104.114C14.5329 106.764 16.6736 109.264 19.3908 109.039L70.7609 104.794C72.7507 104.629 74.3145 103.023 74.4252 101.029L78.8617 21.1736Z" fill="white"/>
</svg>
