<svg width="80" height="72" viewBox="0 0 80 72" fill="none" xmlns="http://www.w3.org/2000/svg">
<path d="M40 69.75L39.6248 69.1872C37.0199 65.2798 35.7174 63.3261 33.9966 61.9118C32.4732 60.6597 30.7179 59.7203 28.831 59.1473C26.6997 58.5 24.3517 58.5 19.6556 58.5H14.5C10.2996 58.5 8.19941 58.5 6.59507 57.6825C5.18386 56.9635 4.0365 55.8161 3.31745 54.4049C2.5 52.8006 2.5 50.7004 2.5 46.5V14.25C2.5 10.0496 2.5 7.94941 3.31745 6.34507C4.0365 4.93386 5.18386 3.7865 6.59507 3.06745C8.19941 2.25 10.2996 2.25 14.5 2.25H16C24.4008 2.25 28.6012 2.25 31.8099 3.8849C34.6323 5.323 36.927 7.61771 38.3651 10.4401C40 13.6488 40 17.8492 40 26.25M40 69.75V26.25M40 69.75L40.3752 69.1872C42.9801 65.2798 44.2826 63.3261 46.0034 61.9118C47.5268 60.6597 49.2821 59.7203 51.169 59.1473C53.3003 58.5 55.6483 58.5 60.3444 58.5H65.5C69.7004 58.5 71.8006 58.5 73.4049 57.6825C74.8161 56.9635 75.9635 55.8161 76.6825 54.4049C77.5 52.8006 77.5 50.7004 77.5 46.5V14.25C77.5 10.0496 77.5 7.94941 76.6825 6.34507C75.9635 4.93386 74.8161 3.7865 73.4049 3.06745C71.8006 2.25 69.7004 2.25 65.5 2.25H64C55.5992 2.25 51.3988 2.25 48.1901 3.8849C45.3677 5.323 43.073 7.61771 41.6349 10.4401C40 13.6488 40 17.8492 40 26.25" stroke="#9FE870" stroke-width="4" stroke-linecap="round" stroke-linejoin="round"/>
</svg>
