<svg width="13" height="14" viewBox="0 0 13 14" fill="none" xmlns="http://www.w3.org/2000/svg">
<path d="M2.5 10.3333C2.5 10.5675 2.5 10.6846 2.51045 10.7864C2.59716 11.6316 3.2084 12.3298 4.03471 12.5274C4.13423 12.5512 4.25034 12.5667 4.48246 12.5977L8.87708 13.1836C10.128 13.3504 10.7535 13.4338 11.239 13.2408C11.6652 13.0713 12.0202 12.7605 12.2445 12.3604C12.5 11.9047 12.5 11.2737 12.5 10.0117V3.98831C12.5 2.72629 12.5 2.09527 12.2445 1.63959C12.0202 1.23951 11.6652 0.92869 11.239 0.759219C10.7535 0.566193 10.128 0.64959 8.87708 0.816384L4.48246 1.40233C4.25031 1.43329 4.13423 1.44876 4.03471 1.47257C3.2084 1.67023 2.59716 2.36838 2.51044 3.21356C2.5 3.31536 2.5 3.43246 2.5 3.66666M6.5 4.33333L9.16667 7M9.16667 7L6.5 9.66666M9.16667 7H0.5" stroke="#EDEFEB" stroke-linecap="round" stroke-linejoin="round"/>
</svg>
