<svg width="66" height="87" viewBox="0 0 66 87" fill="none" xmlns="http://www.w3.org/2000/svg">
<path fill-rule="evenodd" clip-rule="evenodd" d="M65.397 2.00235C65.397 0.54316 63.8849 -0.424832 62.5597 0.186058L17.781 20.8287C17.2408 21.0778 16.8395 21.5543 16.686 22.1291L0.0687926 84.3621C-0.270276 85.632 0.686765 86.8781 2.0011 86.8781H63.397C64.5016 86.8781 65.397 85.9827 65.397 84.8781V2.00235ZM54.5611 13.7941C54.6435 12.3102 53.1362 11.258 51.7717 11.8469L23.0012 24.2636C22.4239 24.5128 21.9973 25.0189 21.8496 25.6302L10.3594 73.1872C10.0392 74.5123 11.1095 75.7624 12.4681 75.6501L49.5674 72.584C50.5623 72.5018 51.3442 71.6985 51.3996 70.7018L54.5611 13.7941Z" fill="#80C554"/>
</svg>
