<svg width="162" height="57" viewBox="0 0 162 57" fill="none" xmlns="http://www.w3.org/2000/svg">
<path d="M5.16121 43.1C5.78454 43.1 6.28321 43.1453 6.65721 43.236C7.04254 43.3267 7.34288 43.474 7.55821 43.678C7.77354 43.8707 7.91521 44.1313 7.98321 44.46C8.06254 44.7887 8.10221 45.191 8.10221 45.667V52.399C8.10221 52.909 8.04554 53.334 7.93221 53.674C7.83021 54.014 7.67154 54.2803 7.45621 54.473C7.25221 54.6657 6.99154 54.8017 6.67421 54.881C6.35688 54.9603 5.98854 55 5.56921 55H4.41321C3.88054 55 3.43288 54.9717 3.07021 54.915C2.71888 54.8583 2.43554 54.7393 2.22021 54.558C2.00488 54.3653 1.85188 54.0877 1.76121 53.725C1.68188 53.3623 1.64221 52.8807 1.64221 52.28V51.175C1.64221 50.9483 1.73854 50.8067 1.93121 50.75C2.12388 50.6933 2.33354 50.665 2.56021 50.665C2.78688 50.665 2.99654 50.6933 3.18921 50.75C3.38188 50.8067 3.47821 50.9483 3.47821 51.175V52.161C3.47821 52.6937 3.53488 53.0507 3.64821 53.232C3.76154 53.4133 4.01654 53.504 4.41321 53.504H5.36521C5.72788 53.504 5.96588 53.4133 6.07921 53.232C6.19254 53.0393 6.24921 52.7163 6.24921 52.263V45.735C6.24921 45.5197 6.23221 45.344 6.19821 45.208C6.17554 45.0607 6.12454 44.9473 6.04521 44.868C5.96588 44.7773 5.84688 44.715 5.68821 44.681C5.52954 44.647 5.32554 44.63 5.07621 44.63H4.36221C3.97688 44.63 3.73321 44.732 3.63121 44.936C3.52921 45.14 3.47821 45.48 3.47821 45.956V45.99C3.48954 46.228 3.39321 46.3753 3.18921 46.432C2.99654 46.4887 2.78688 46.517 2.56021 46.517C2.33354 46.517 2.12388 46.4887 1.93121 46.432C1.73854 46.3753 1.64221 46.2337 1.64221 46.007V45.854C1.64221 45.276 1.69321 44.8057 1.79521 44.443C1.89721 44.0803 2.05588 43.8027 2.27121 43.61C2.48654 43.406 2.75854 43.27 3.08721 43.202C3.41588 43.134 3.81254 43.1 4.27721 43.1H5.16121ZM13.5977 43.1C14.0511 43.1 14.4421 43.134 14.7707 43.202C15.1107 43.2587 15.3884 43.389 15.6037 43.593C15.8304 43.7857 15.9947 44.0747 16.0967 44.46C16.1987 44.834 16.2497 45.3327 16.2497 45.956V51.124C16.2497 51.3507 16.1477 51.4867 15.9437 51.532C15.7511 51.5773 15.5414 51.6 15.3147 51.6C15.0881 51.6 14.8784 51.5773 14.6857 51.532C14.4931 51.4867 14.3967 51.3507 14.3967 51.124V45.82C14.3967 45.378 14.3401 45.0663 14.2267 44.885C14.1134 44.6923 13.8414 44.596 13.4107 44.596H12.6627C12.2207 44.596 11.9431 44.698 11.8297 44.902C11.7164 45.0947 11.6597 45.4347 11.6597 45.922V52.212C11.6597 52.45 11.6654 52.654 11.6767 52.824C11.6994 52.9827 11.7447 53.113 11.8127 53.215C11.8921 53.317 11.9997 53.3907 12.1357 53.436C12.2831 53.4813 12.4757 53.504 12.7137 53.504H15.4337C15.6831 53.504 15.8361 53.589 15.8927 53.759C15.9607 53.9177 15.9947 54.082 15.9947 54.252C15.9947 54.4447 15.9664 54.6203 15.9097 54.779C15.8644 54.9263 15.7001 55 15.4167 55H12.5777C11.9657 55 11.4784 54.949 11.1157 54.847C10.7531 54.745 10.4754 54.5863 10.2827 54.371C10.0901 54.1443 9.96539 53.861 9.90873 53.521C9.85206 53.1697 9.82373 52.7503 9.82373 52.263V45.871C9.82373 45.293 9.86906 44.8227 9.95973 44.46C10.0617 44.0973 10.2147 43.814 10.4187 43.61C10.6341 43.406 10.9061 43.27 11.2347 43.202C11.5634 43.134 11.9657 43.1 12.4417 43.1H13.5977ZM21.438 43.1C22.0614 43.1 22.56 43.1453 22.934 43.236C23.3194 43.3267 23.6197 43.474 23.835 43.678C24.0504 43.8707 24.192 44.1313 24.26 44.46C24.3394 44.7887 24.379 45.191 24.379 45.667V52.399C24.379 52.909 24.3224 53.334 24.209 53.674C24.107 54.014 23.9484 54.2803 23.733 54.473C23.529 54.6657 23.2684 54.8017 22.951 54.881C22.6337 54.9603 22.2654 55 21.846 55H20.69C20.1574 55 19.7097 54.9717 19.347 54.915C18.9957 54.8583 18.7124 54.7393 18.497 54.558C18.2817 54.3653 18.1287 54.0877 18.038 53.725C17.9587 53.3623 17.919 52.8807 17.919 52.28V51.175C17.919 50.9483 18.0154 50.8067 18.208 50.75C18.4007 50.6933 18.6104 50.665 18.837 50.665C19.0637 50.665 19.2734 50.6933 19.466 50.75C19.6587 50.8067 19.755 50.9483 19.755 51.175V52.161C19.755 52.6937 19.8117 53.0507 19.925 53.232C20.0384 53.4133 20.2934 53.504 20.69 53.504H21.642C22.0047 53.504 22.2427 53.4133 22.356 53.232C22.4694 53.0393 22.526 52.7163 22.526 52.263V45.735C22.526 45.5197 22.509 45.344 22.475 45.208C22.4524 45.0607 22.4014 44.9473 22.322 44.868C22.2427 44.7773 22.1237 44.715 21.965 44.681C21.8064 44.647 21.6024 44.63 21.353 44.63H20.639C20.2537 44.63 20.01 44.732 19.908 44.936C19.806 45.14 19.755 45.48 19.755 45.956V45.99C19.7664 46.228 19.67 46.3753 19.466 46.432C19.2734 46.4887 19.0637 46.517 18.837 46.517C18.6104 46.517 18.4007 46.4887 18.208 46.432C18.0154 46.3753 17.919 46.2337 17.919 46.007V45.854C17.919 45.276 17.97 44.8057 18.072 44.443C18.174 44.0803 18.3327 43.8027 18.548 43.61C18.7634 43.406 19.0354 43.27 19.364 43.202C19.6927 43.134 20.0894 43.1 20.554 43.1H21.438ZM30.6056 43.525C30.6056 43.321 30.7019 43.1963 30.8946 43.151C31.0872 43.0943 31.2969 43.066 31.5236 43.066C31.7502 43.066 31.9542 43.0887 32.1356 43.134C32.3282 43.1793 32.4359 43.2983 32.4586 43.491V52.178C32.4586 52.6087 32.4359 52.9997 32.3906 53.351C32.3452 53.691 32.2319 53.9857 32.0506 54.235C31.8692 54.473 31.5972 54.66 31.2346 54.796C30.8719 54.932 30.3732 55 29.7386 55H28.4806C27.9366 55 27.5002 54.949 27.1716 54.847C26.8542 54.7337 26.6106 54.5637 26.4406 54.337C26.2706 54.1103 26.1572 53.827 26.1006 53.487C26.0439 53.147 26.0099 52.7447 25.9986 52.28V51.413C25.9986 51.2203 26.0892 51.09 26.2706 51.022C26.4632 50.9427 26.6729 50.903 26.8996 50.903C27.1262 50.903 27.3359 50.9427 27.5286 51.022C27.7326 51.09 27.8346 51.2203 27.8346 51.413V52.178C27.8346 52.5067 27.8572 52.7617 27.9026 52.943C27.9479 53.113 28.0159 53.2433 28.1066 53.334C28.2086 53.4133 28.3389 53.4643 28.4976 53.487C28.6562 53.4983 28.8489 53.504 29.0756 53.504H29.3816C29.6536 53.504 29.8689 53.4813 30.0276 53.436C30.1862 53.3793 30.3052 53.2943 30.3846 53.181C30.4752 53.0677 30.5319 52.926 30.5546 52.756C30.5886 52.5747 30.6056 52.3593 30.6056 52.11V48.37C30.6056 48.1093 30.5206 47.9507 30.3506 47.894C30.1919 47.826 29.9992 47.792 29.7726 47.792C29.6026 47.792 29.4609 47.8033 29.3476 47.826C29.2456 47.8373 29.1606 47.877 29.0926 47.945C29.0359 48.0017 28.9906 48.0923 28.9566 48.217C28.9339 48.3417 28.9226 48.5117 28.9226 48.727V48.812C28.9226 48.982 28.8262 49.1123 28.6336 49.203C28.4409 49.2823 28.2312 49.322 28.0046 49.322C27.7666 49.322 27.5456 49.2767 27.3416 49.186C27.1489 49.0953 27.0526 48.9707 27.0526 48.812V48.625C27.0526 48.047 27.1206 47.5993 27.2566 47.282C27.3926 46.9647 27.5796 46.7323 27.8176 46.585C28.0669 46.4377 28.3559 46.3527 28.6846 46.33C29.0132 46.296 29.3759 46.279 29.7726 46.279C29.8632 46.279 29.9936 46.296 30.1636 46.33C30.3336 46.364 30.4809 46.4433 30.6056 46.568V43.525ZM34.4339 43.542C34.4339 43.3493 34.5246 43.2247 34.7059 43.168C34.8872 43.1113 35.0912 43.083 35.3179 43.083C35.5446 43.083 35.7486 43.1113 35.9299 43.168C36.1112 43.2247 36.2019 43.3493 36.2019 43.542V52.314C36.2019 52.6427 36.2302 52.892 36.2869 53.062C36.3436 53.2207 36.4286 53.3397 36.5419 53.419C36.6552 53.4983 36.7969 53.5437 36.9669 53.555C37.1369 53.555 37.3409 53.555 37.5789 53.555H39.5679C39.8059 53.555 39.9986 53.5437 40.1459 53.521C40.2932 53.487 40.4066 53.4303 40.4859 53.351C40.5766 53.2603 40.6389 53.1413 40.6729 52.994C40.7069 52.8467 40.7296 52.6483 40.7409 52.399V52.246C40.7409 52.2233 40.7352 52.195 40.7239 52.161C40.7239 52.127 40.7239 52.093 40.7239 52.059V49.101C40.7239 48.6817 40.6956 48.387 40.6389 48.217C40.5822 48.0357 40.3896 47.945 40.0609 47.945C39.8002 47.945 39.6132 48.0073 39.4999 48.132C39.3979 48.2453 39.3469 48.5173 39.3469 48.948V51.226C39.3469 51.4187 39.2506 51.5377 39.0579 51.583C38.8652 51.617 38.6556 51.634 38.4289 51.634C38.2022 51.634 37.9982 51.617 37.8169 51.583C37.6469 51.5377 37.5619 51.4187 37.5619 51.226V48.88C37.5619 48.4947 37.6016 48.166 37.6809 47.894C37.7602 47.622 37.9416 47.4067 38.2249 47.248C37.9302 47.078 37.7092 46.823 37.5619 46.483C37.4259 46.143 37.3579 45.8087 37.3579 45.48C37.3579 44.97 37.4429 44.562 37.6129 44.256C37.7942 43.9387 38.0152 43.695 38.2759 43.525C38.5366 43.355 38.8086 43.2417 39.0919 43.185C39.3866 43.1283 39.6529 43.1 39.8909 43.1H40.0439C40.3046 43.1 40.5822 43.1283 40.8769 43.185C41.1716 43.2417 41.4379 43.355 41.6759 43.525C41.9252 43.695 42.1236 43.9387 42.2709 44.256C42.4296 44.562 42.5032 44.97 42.4919 45.48C42.4806 45.8087 42.4126 46.143 42.2879 46.483C42.1632 46.823 41.9649 47.078 41.6929 47.248C42.2256 47.5313 42.4919 48.0753 42.4919 48.88V52.348C42.4919 52.8127 42.4692 53.2093 42.4239 53.538C42.3786 53.8667 42.2709 54.1443 42.1009 54.371C41.9309 54.5863 41.6702 54.745 41.3189 54.847C40.9789 54.949 40.5029 55 39.8909 55H37.0349C36.6042 55 36.2246 54.983 35.8959 54.949C35.5786 54.9037 35.3122 54.796 35.0969 54.626C34.8816 54.4447 34.7172 54.1783 34.6039 53.827C34.4906 53.4757 34.4339 52.994 34.4339 52.382V43.542ZM39.8909 44.562C39.6982 44.562 39.5282 44.6413 39.3809 44.8C39.2336 44.9587 39.1599 45.2023 39.1599 45.531C39.1599 45.8257 39.2109 46.0637 39.3129 46.245C39.4262 46.415 39.5962 46.5 39.8229 46.5H40.1119C40.3386 46.5 40.4972 46.415 40.5879 46.245C40.6899 46.0637 40.7409 45.8257 40.7409 45.531C40.7409 45.2023 40.6672 44.9587 40.5199 44.8C40.3839 44.6413 40.2252 44.562 40.0439 44.562H39.8909ZM52.188 43.1C52.4827 43.1 52.664 43.1737 52.732 43.321C52.8 43.4683 52.834 43.6327 52.834 43.814C52.834 44.0067 52.7943 44.1767 52.715 44.324C52.647 44.4713 52.4827 44.545 52.222 44.545H47.224C46.9067 44.545 46.6743 44.6073 46.527 44.732C46.391 44.8453 46.323 45.14 46.323 45.616V46.806C46.527 46.602 46.8047 46.5 47.156 46.5C47.3487 46.5 47.5187 46.5057 47.666 46.517C47.8133 46.5283 47.9493 46.5567 48.074 46.602C48.21 46.6473 48.3403 46.7153 48.465 46.806C48.601 46.8853 48.7427 46.993 48.89 47.129C49.1733 46.8343 49.434 46.6587 49.672 46.602C49.9213 46.534 50.182 46.5 50.454 46.5H51.134C51.78 46.5 52.2617 46.7097 52.579 47.129C52.8963 47.5483 53.055 48.1377 53.055 48.897V54.592C53.055 54.7847 52.9587 54.9037 52.766 54.949C52.5847 54.983 52.3807 55 52.154 55C51.9273 55 51.7233 54.983 51.542 54.949C51.372 54.9037 51.287 54.7847 51.287 54.592V49.016C51.287 48.7667 51.2757 48.5683 51.253 48.421C51.2303 48.2737 51.1907 48.166 51.134 48.098C51.0773 48.0187 50.9923 47.9733 50.879 47.962C50.7657 47.9393 50.624 47.928 50.454 47.928C50.318 47.928 50.199 47.9393 50.097 47.962C50.0063 47.9847 49.9327 48.0357 49.876 48.115C49.8193 48.1943 49.774 48.3133 49.74 48.472C49.7173 48.6307 49.706 48.846 49.706 49.118V51.243C49.706 51.4243 49.6097 51.5433 49.417 51.6C49.2357 51.6453 49.0317 51.668 48.805 51.668C48.5783 51.668 48.3687 51.6453 48.176 51.6C47.9947 51.5433 47.904 51.4243 47.904 51.243V49.135C47.904 48.8517 47.887 48.6307 47.853 48.472C47.8303 48.3133 47.785 48.1943 47.717 48.115C47.649 48.0357 47.5583 47.9903 47.445 47.979C47.343 47.9563 47.2127 47.945 47.054 47.945C46.7253 47.945 46.5213 48.03 46.442 48.2C46.3627 48.37 46.323 48.6307 46.323 48.982V54.575C46.323 54.7677 46.2323 54.8867 46.051 54.932C45.8697 54.9773 45.6657 55 45.439 55C45.2123 55 45.0027 54.9773 44.81 54.932C44.6287 54.8867 44.538 54.7677 44.538 54.575V45.497C44.538 45.0437 44.5777 44.664 44.657 44.358C44.7477 44.052 44.8893 43.8083 45.082 43.627C45.2747 43.4343 45.5353 43.2983 45.864 43.219C46.1927 43.1397 46.6063 43.1 47.105 43.1H52.188ZM57.6419 43.1C58.1519 43.1 58.5486 43.168 58.8319 43.304C59.1153 43.4287 59.3419 43.6213 59.5119 43.882C59.6479 43.6213 59.8633 43.4287 60.1579 43.304C60.4639 43.168 60.7983 43.1 61.1609 43.1C61.5236 43.1 61.8749 43.117 62.2149 43.151C62.5549 43.1737 62.8553 43.27 63.1159 43.44C63.3766 43.61 63.5863 43.8763 63.7449 44.239C63.9036 44.5903 63.9829 45.089 63.9829 45.735V54.592C63.9829 54.7847 63.8809 54.9037 63.6769 54.949C63.4843 54.983 63.2746 55 63.0479 55C62.8099 55 62.5946 54.983 62.4019 54.949C62.2093 54.9037 62.1129 54.7847 62.1129 54.592L62.1299 45.973C62.1299 45.6557 62.1129 45.4063 62.0789 45.225C62.0449 45.0437 61.9883 44.9077 61.9089 44.817C61.8296 44.7263 61.7276 44.6753 61.6029 44.664C61.4896 44.6413 61.3479 44.63 61.1779 44.63C60.8493 44.63 60.6396 44.7377 60.5489 44.953C60.4583 45.157 60.4129 45.4517 60.4129 45.837V51.192C60.4129 51.3847 60.3109 51.5037 60.1069 51.549C59.9143 51.5943 59.7046 51.617 59.4779 51.617C59.2399 51.617 59.0246 51.5943 58.8319 51.549C58.6393 51.5037 58.5429 51.3847 58.5429 51.192V45.871C58.5429 45.395 58.4863 45.072 58.3729 44.902C58.2709 44.7207 58.0726 44.63 57.7779 44.63C57.4833 44.63 57.2509 44.6923 57.0809 44.817C56.9223 44.9303 56.8429 45.225 56.8429 45.701V54.592C56.8429 54.796 56.7466 54.915 56.5539 54.949C56.3613 54.983 56.1516 55 55.9249 55C55.6983 55 55.4886 54.983 55.2959 54.949C55.1033 54.915 55.0069 54.796 55.0069 54.592V45.633C55.0069 45.0777 55.0806 44.6357 55.2279 44.307C55.3753 43.9783 55.5679 43.7233 55.8059 43.542C56.0553 43.3607 56.3386 43.2417 56.6559 43.185C56.9733 43.1283 57.3019 43.1 57.6419 43.1ZM71.0969 43.1C71.3689 43.1 71.5389 43.1737 71.6069 43.321C71.6862 43.4683 71.7259 43.6327 71.7259 43.814C71.7259 44.0067 71.6862 44.1767 71.6069 44.324C71.5389 44.46 71.3689 44.528 71.0969 44.528L68.3599 44.511C68.0312 44.511 67.8272 44.6073 67.7479 44.8C67.6686 44.9927 67.6289 45.31 67.6289 45.752V46.806C67.8216 46.6813 68.0256 46.602 68.2409 46.568C68.4676 46.5227 68.6829 46.5 68.8869 46.5H69.4649C70.0429 46.5 70.4962 46.5567 70.8249 46.67C71.1536 46.7833 71.3972 46.9477 71.5559 47.163C71.7259 47.3783 71.8336 47.6447 71.8789 47.962C71.9242 48.2793 71.9469 48.6477 71.9469 49.067V52.331C71.9469 52.8637 71.9072 53.3057 71.8279 53.657C71.7599 53.997 71.6296 54.269 71.4369 54.473C71.2442 54.6657 70.9779 54.8017 70.6379 54.881C70.2979 54.9603 69.8616 55 69.3289 55H68.4619C67.9292 55 67.4929 54.9603 67.1529 54.881C66.8129 54.7903 66.5466 54.6487 66.3539 54.456C66.1612 54.252 66.0252 53.9857 65.9459 53.657C65.8779 53.3283 65.8439 52.9147 65.8439 52.416V45.463C65.8439 44.9983 65.8892 44.613 65.9799 44.307C66.0706 44.001 66.2122 43.763 66.4049 43.593C66.6089 43.4117 66.8696 43.287 67.1869 43.219C67.5042 43.1397 67.8952 43.1 68.3599 43.1H71.0969ZM67.6289 52.331C67.6289 52.5803 67.6402 52.7843 67.6629 52.943C67.6969 53.1017 67.7479 53.2263 67.8159 53.317C67.8952 53.4077 68.0086 53.47 68.1559 53.504C68.3032 53.538 68.4959 53.555 68.7339 53.555H69.0229C69.2496 53.555 69.4366 53.5437 69.5839 53.521C69.7312 53.4983 69.8446 53.4473 69.9239 53.368C70.0146 53.2773 70.0769 53.1527 70.1109 52.994C70.1449 52.8353 70.1619 52.62 70.1619 52.348V49.05C70.1619 48.6193 70.0882 48.3303 69.9409 48.183C69.8049 48.0243 69.5329 47.945 69.1249 47.945H68.6659C68.4052 47.945 68.2012 47.9677 68.0539 48.013C67.9179 48.0583 67.8159 48.132 67.7479 48.234C67.6912 48.3247 67.6572 48.4437 67.6459 48.591C67.6346 48.727 67.6289 48.8913 67.6289 49.084V52.331ZM74.4524 43.1C74.8831 43.1 75.2684 43.1397 75.6084 43.219C75.9484 43.287 76.2431 43.4343 76.4924 43.661C76.7191 43.4343 76.9457 43.287 77.1724 43.219C77.3991 43.1397 77.6654 43.1 77.9714 43.1H78.4984C79.2124 43.1 79.6997 43.3267 79.9604 43.78C80.2324 44.2333 80.3684 44.851 80.3684 45.633V51.923C80.3684 52.569 80.3457 53.096 80.3004 53.504C80.2551 53.9007 80.1361 54.2123 79.9434 54.439C79.7507 54.6543 79.4617 54.8017 79.0764 54.881C78.6911 54.9603 78.1584 55 77.4784 55H76.7984C76.3224 55 75.9031 54.9773 75.5404 54.932C75.1777 54.8753 74.8774 54.762 74.6394 54.592C74.4014 54.4107 74.2201 54.1557 74.0954 53.827C73.9821 53.4983 73.9254 53.0563 73.9254 52.501V51.328C73.9367 51.158 74.0331 51.039 74.2144 50.971C74.4071 50.903 74.6167 50.869 74.8434 50.869C75.0701 50.869 75.2741 50.903 75.4554 50.971C75.6367 51.039 75.7387 51.158 75.7614 51.328V52.11C75.7614 52.416 75.7784 52.6597 75.8124 52.841C75.8464 53.0223 75.9031 53.164 75.9824 53.266C76.0731 53.3567 76.1977 53.419 76.3564 53.453C76.5151 53.487 76.7247 53.504 76.9854 53.504H77.2914C77.5861 53.504 77.8127 53.487 77.9714 53.453C78.1414 53.4077 78.2661 53.334 78.3454 53.232C78.4247 53.13 78.4701 52.9997 78.4814 52.841C78.5041 52.671 78.5154 52.4557 78.5154 52.195L78.5324 45.837C78.5324 45.4063 78.5041 45.1003 78.4474 44.919C78.3907 44.7377 78.2321 44.647 77.9714 44.647C77.8807 44.647 77.8014 44.6583 77.7334 44.681C77.6654 44.6923 77.6031 44.7377 77.5464 44.817C77.5011 44.885 77.4671 45.004 77.4444 45.174C77.4217 45.3327 77.4104 45.5537 77.4104 45.837V46.942C77.4104 47.0667 77.3141 47.1743 77.1214 47.265C76.9287 47.3443 76.7191 47.384 76.4924 47.384C76.2544 47.3953 76.0391 47.3613 75.8464 47.282C75.6537 47.1913 75.5574 47.078 75.5574 46.942V45.837C75.5574 45.5423 75.5404 45.3157 75.5064 45.157C75.4724 44.987 75.4157 44.868 75.3364 44.8C75.2684 44.7207 75.1721 44.6753 75.0474 44.664C74.9227 44.6413 74.7754 44.63 74.6054 44.63H74.2144C73.9311 44.63 73.7384 44.545 73.6364 44.375C73.5457 44.1937 73.5004 44.0067 73.5004 43.814C73.5004 43.6213 73.5401 43.457 73.6194 43.321C73.7101 43.1737 73.8971 43.1 74.1804 43.1H74.4524ZM85.9766 43.1C86.4299 43.1 86.8209 43.134 87.1496 43.202C87.4896 43.2587 87.7672 43.389 87.9826 43.593C88.2092 43.7857 88.3736 44.0747 88.4756 44.46C88.5776 44.834 88.6286 45.3327 88.6286 45.956V51.124C88.6286 51.3507 88.5266 51.4867 88.3226 51.532C88.1299 51.5773 87.9202 51.6 87.6936 51.6C87.4669 51.6 87.2572 51.5773 87.0646 51.532C86.8719 51.4867 86.7756 51.3507 86.7756 51.124V45.82C86.7756 45.378 86.7189 45.0663 86.6056 44.885C86.4922 44.6923 86.2202 44.596 85.7896 44.596H85.0416C84.5996 44.596 84.3219 44.698 84.2086 44.902C84.0952 45.0947 84.0386 45.4347 84.0386 45.922V52.212C84.0386 52.45 84.0442 52.654 84.0556 52.824C84.0782 52.9827 84.1236 53.113 84.1916 53.215C84.2709 53.317 84.3786 53.3907 84.5146 53.436C84.6619 53.4813 84.8546 53.504 85.0926 53.504H87.8126C88.0619 53.504 88.2149 53.589 88.2716 53.759C88.3396 53.9177 88.3736 54.082 88.3736 54.252C88.3736 54.4447 88.3452 54.6203 88.2886 54.779C88.2432 54.9263 88.0789 55 87.7956 55H84.9566C84.3446 55 83.8572 54.949 83.4946 54.847C83.1319 54.745 82.8542 54.5863 82.6616 54.371C82.4689 54.1443 82.3442 53.861 82.2876 53.521C82.2309 53.1697 82.2026 52.7503 82.2026 52.263V45.871C82.2026 45.293 82.2479 44.8227 82.3386 44.46C82.4406 44.0973 82.5936 43.814 82.7976 43.61C83.0129 43.406 83.2849 43.27 83.6136 43.202C83.9422 43.134 84.3446 43.1 84.8206 43.1H85.9766ZM94.0549 43.1C94.6782 43.1 95.1599 43.1737 95.4999 43.321C95.8512 43.457 96.1062 43.6497 96.2649 43.899C96.4235 44.137 96.5142 44.426 96.5369 44.766C96.5709 45.106 96.5879 45.4687 96.5879 45.854V54.575C96.5879 54.7677 96.4972 54.8867 96.3159 54.932C96.1345 54.9773 95.9305 55 95.7039 55C95.4772 55 95.2675 54.9773 95.0749 54.932C94.8935 54.8867 94.8029 54.7677 94.8029 54.575V45.752C94.8029 45.514 94.7859 45.3157 94.7519 45.157C94.7292 44.9983 94.6782 44.8737 94.5989 44.783C94.5309 44.6923 94.4289 44.63 94.2929 44.596C94.1569 44.562 93.9812 44.545 93.7659 44.545H93.2219C92.9952 44.545 92.8139 44.562 92.6779 44.596C92.5532 44.63 92.4512 44.6923 92.3719 44.783C92.2925 44.8737 92.2415 45.0097 92.2189 45.191C92.1962 45.361 92.1849 45.582 92.1849 45.854V54.592C92.1849 54.7733 92.0885 54.8867 91.8959 54.932C91.7145 54.9773 91.5105 55 91.2839 55C91.0572 55 90.8532 54.9773 90.6719 54.932C90.4905 54.8867 90.3999 54.7733 90.3999 54.592V45.752C90.3999 45.2873 90.4282 44.8907 90.4849 44.562C90.5415 44.222 90.6549 43.9443 90.8249 43.729C91.0062 43.5137 91.2612 43.355 91.5899 43.253C91.9299 43.151 92.3775 43.1 92.9329 43.1H94.0549ZM111.85 43.1C112.077 43.1 112.235 43.1793 112.326 43.338C112.417 43.4853 112.462 43.6553 112.462 43.848C112.462 44.0407 112.411 44.2333 112.309 44.426C112.218 44.6073 112.06 44.698 111.833 44.698H111.068C110.898 44.698 110.762 44.7037 110.66 44.715C110.558 44.7263 110.479 44.766 110.422 44.834C110.365 44.8907 110.326 44.9757 110.303 45.089C110.28 45.2023 110.269 45.361 110.269 45.565H108.909C108.909 45.361 108.898 45.2023 108.875 45.089C108.852 44.9757 108.813 44.8963 108.756 44.851C108.699 44.7943 108.62 44.7603 108.518 44.749C108.427 44.7377 108.314 44.732 108.178 44.732C108.042 44.732 107.929 44.7377 107.838 44.749C107.759 44.7603 107.691 44.7943 107.634 44.851C107.589 44.8963 107.555 44.9757 107.532 45.089C107.521 45.2023 107.515 45.361 107.515 45.565V46.806C107.674 46.6813 107.861 46.602 108.076 46.568C108.303 46.5227 108.563 46.5 108.858 46.5H108.96C109.515 46.5 109.991 46.5283 110.388 46.585C110.796 46.6303 111.125 46.7437 111.374 46.925C111.635 47.095 111.827 47.35 111.952 47.69C112.077 48.0187 112.139 48.4607 112.139 49.016V52.382C112.15 52.9147 112.111 53.351 112.02 53.691C111.941 54.0197 111.793 54.286 111.578 54.49C111.363 54.6827 111.079 54.8187 110.728 54.898C110.388 54.966 109.969 55 109.47 55H108.331C107.821 55 107.396 54.966 107.056 54.898C106.716 54.8187 106.438 54.677 106.223 54.473C106.019 54.269 105.872 53.9857 105.781 53.623C105.702 53.249 105.662 52.7673 105.662 52.178V45.616C105.662 45.208 105.679 44.851 105.713 44.545C105.758 44.2277 105.843 43.967 105.968 43.763C106.104 43.5477 106.291 43.3833 106.529 43.27C106.778 43.1567 107.107 43.1 107.515 43.1H108.076C108.416 43.1 108.699 43.1227 108.926 43.168C109.164 43.2133 109.379 43.3323 109.572 43.525C109.787 43.3323 110.048 43.2133 110.354 43.168C110.66 43.1227 111.006 43.1 111.391 43.1H111.85ZM110.303 49.237C110.292 48.9877 110.269 48.7837 110.235 48.625C110.201 48.4663 110.139 48.3417 110.048 48.251C109.969 48.1603 109.844 48.098 109.674 48.064C109.515 48.03 109.3 48.013 109.028 48.013H108.773C108.512 48.013 108.297 48.03 108.127 48.064C107.968 48.0867 107.844 48.1433 107.753 48.234C107.662 48.3133 107.6 48.4323 107.566 48.591C107.532 48.7497 107.515 48.9537 107.515 49.203V52.178C107.515 52.4387 107.526 52.654 107.549 52.824C107.572 52.994 107.617 53.13 107.685 53.232C107.753 53.334 107.849 53.4077 107.974 53.453C108.11 53.487 108.291 53.504 108.518 53.504H109.3C109.504 53.504 109.668 53.487 109.793 53.453C109.929 53.419 110.031 53.3567 110.099 53.266C110.178 53.1753 110.229 53.045 110.252 52.875C110.286 52.6937 110.303 52.4557 110.303 52.161V49.237ZM117.648 43.1C118.272 43.1 118.753 43.1737 119.093 43.321C119.445 43.457 119.7 43.6497 119.858 43.899C120.017 44.137 120.108 44.426 120.13 44.766C120.164 45.106 120.181 45.4687 120.181 45.854V54.575C120.181 54.7677 120.091 54.8867 119.909 54.932C119.728 54.9773 119.524 55 119.297 55C119.071 55 118.861 54.9773 118.668 54.932C118.487 54.8867 118.396 54.7677 118.396 54.575V45.752C118.396 45.514 118.379 45.3157 118.345 45.157C118.323 44.9983 118.272 44.8737 118.192 44.783C118.124 44.6923 118.022 44.63 117.886 44.596C117.75 44.562 117.575 44.545 117.359 44.545H116.815C116.589 44.545 116.407 44.562 116.271 44.596C116.147 44.63 116.045 44.6923 115.965 44.783C115.886 44.8737 115.835 45.0097 115.812 45.191C115.79 45.361 115.778 45.582 115.778 45.854V54.592C115.778 54.7733 115.682 54.8867 115.489 54.932C115.308 54.9773 115.104 55 114.877 55C114.651 55 114.447 54.9773 114.265 54.932C114.084 54.8867 113.993 54.7733 113.993 54.592V45.752C113.993 45.2873 114.022 44.8907 114.078 44.562C114.135 44.222 114.248 43.9443 114.418 43.729C114.6 43.5137 114.855 43.355 115.183 43.253C115.523 43.151 115.971 43.1 116.526 43.1H117.648ZM124.659 43.1C125.203 43.1 125.645 43.1453 125.985 43.236C126.336 43.3267 126.608 43.474 126.801 43.678C127.005 43.882 127.147 44.154 127.226 44.494C127.305 44.834 127.345 45.259 127.345 45.769V46.721C127.798 46.8797 128.082 47.1573 128.195 47.554C128.308 47.9507 128.365 48.4663 128.365 49.101V52.093C128.365 52.705 128.32 53.198 128.229 53.572C128.15 53.946 128.008 54.2407 127.804 54.456C127.6 54.6713 127.322 54.8187 126.971 54.898C126.62 54.966 126.178 55 125.645 55H124.625C124.002 55 123.509 54.9433 123.146 54.83C122.783 54.7053 122.511 54.5297 122.33 54.303C122.149 54.065 122.03 53.776 121.973 53.436C121.928 53.0847 121.905 52.6823 121.905 52.229V48.999C121.905 48.4437 121.967 48.0017 122.092 47.673C122.228 47.3443 122.415 47.095 122.653 46.925C122.902 46.7437 123.203 46.6303 123.554 46.585C123.905 46.5283 124.296 46.5 124.727 46.5H125.492V45.412C125.492 45.2987 125.486 45.191 125.475 45.089C125.464 44.987 125.43 44.902 125.373 44.834C125.316 44.7547 125.231 44.698 125.118 44.664C125.016 44.6187 124.863 44.596 124.659 44.596C124.296 44.596 124.064 44.6527 123.962 44.766C123.871 44.868 123.826 44.9983 123.826 45.157V45.276C123.826 45.4687 123.735 45.582 123.554 45.616C123.384 45.65 123.18 45.667 122.942 45.667C122.829 45.667 122.715 45.667 122.602 45.667C122.489 45.667 122.387 45.6557 122.296 45.633C122.205 45.6103 122.132 45.5707 122.075 45.514C122.018 45.4573 121.99 45.378 121.99 45.276V45.021C121.99 44.783 122.013 44.5507 122.058 44.324C122.115 44.086 122.228 43.8763 122.398 43.695C122.579 43.5137 122.846 43.372 123.197 43.27C123.56 43.1567 124.047 43.1 124.659 43.1ZM123.741 52.246C123.741 52.7447 123.803 53.079 123.928 53.249C124.064 53.4077 124.33 53.487 124.727 53.487H125.543C125.962 53.487 126.229 53.3963 126.342 53.215C126.467 53.0337 126.529 52.6823 126.529 52.161V49.237C126.529 48.9763 126.506 48.7667 126.461 48.608C126.427 48.438 126.365 48.3133 126.274 48.234C126.183 48.1433 126.059 48.0867 125.9 48.064C125.753 48.03 125.566 48.013 125.339 48.013H124.931C124.659 48.013 124.444 48.0357 124.285 48.081C124.138 48.1263 124.019 48.2 123.928 48.302C123.849 48.3927 123.798 48.5117 123.775 48.659C123.752 48.8063 123.741 48.9877 123.741 49.203V52.246ZM135.457 43.1C135.729 43.1 135.899 43.1737 135.967 43.321C136.047 43.4683 136.086 43.6327 136.086 43.814C136.086 44.0067 136.047 44.1767 135.967 44.324C135.899 44.46 135.729 44.528 135.457 44.528L132.72 44.511C132.392 44.511 132.188 44.6073 132.108 44.8C132.029 44.9927 131.989 45.31 131.989 45.752V46.806C132.182 46.6813 132.386 46.602 132.601 46.568C132.828 46.5227 133.043 46.5 133.247 46.5H133.825C134.403 46.5 134.857 46.5567 135.185 46.67C135.514 46.7833 135.758 46.9477 135.916 47.163C136.086 47.3783 136.194 47.6447 136.239 47.962C136.285 48.2793 136.307 48.6477 136.307 49.067V52.331C136.307 52.8637 136.268 53.3057 136.188 53.657C136.12 53.997 135.99 54.269 135.797 54.473C135.605 54.6657 135.338 54.8017 134.998 54.881C134.658 54.9603 134.222 55 133.689 55H132.822C132.29 55 131.853 54.9603 131.513 54.881C131.173 54.7903 130.907 54.6487 130.714 54.456C130.522 54.252 130.386 53.9857 130.306 53.657C130.238 53.3283 130.204 52.9147 130.204 52.416V45.463C130.204 44.9983 130.25 44.613 130.34 44.307C130.431 44.001 130.573 43.763 130.765 43.593C130.969 43.4117 131.23 43.287 131.547 43.219C131.865 43.1397 132.256 43.1 132.72 43.1H135.457ZM131.989 52.331C131.989 52.5803 132.001 52.7843 132.023 52.943C132.057 53.1017 132.108 53.2263 132.176 53.317C132.256 53.4077 132.369 53.47 132.516 53.504C132.664 53.538 132.856 53.555 133.094 53.555H133.383C133.61 53.555 133.797 53.5437 133.944 53.521C134.092 53.4983 134.205 53.4473 134.284 53.368C134.375 53.2773 134.437 53.1527 134.471 52.994C134.505 52.8353 134.522 52.62 134.522 52.348V49.05C134.522 48.6193 134.449 48.3303 134.301 48.183C134.165 48.0243 133.893 47.945 133.485 47.945H133.026C132.766 47.945 132.562 47.9677 132.414 48.013C132.278 48.0583 132.176 48.132 132.108 48.234C132.052 48.3247 132.018 48.4437 132.006 48.591C131.995 48.727 131.989 48.8913 131.989 49.084V52.331ZM141.635 43.1C142.258 43.1 142.757 43.1453 143.131 43.236C143.516 43.3267 143.816 43.474 144.032 43.678C144.247 43.8707 144.389 44.1313 144.457 44.46C144.536 44.7887 144.576 45.191 144.576 45.667V52.399C144.576 52.909 144.519 53.334 144.406 53.674C144.304 54.014 144.145 54.2803 143.93 54.473C143.726 54.6657 143.465 54.8017 143.148 54.881C142.83 54.9603 142.462 55 142.043 55H140.887C140.354 55 139.906 54.9717 139.544 54.915C139.192 54.8583 138.909 54.7393 138.694 54.558C138.478 54.3653 138.325 54.0877 138.235 53.725C138.155 53.3623 138.116 52.8807 138.116 52.28V51.175C138.116 50.9483 138.212 50.8067 138.405 50.75C138.597 50.6933 138.807 50.665 139.034 50.665C139.26 50.665 139.47 50.6933 139.663 50.75C139.855 50.8067 139.952 50.9483 139.952 51.175V52.161C139.952 52.6937 140.008 53.0507 140.122 53.232C140.235 53.4133 140.49 53.504 140.887 53.504H141.839C142.201 53.504 142.439 53.4133 142.553 53.232C142.666 53.0393 142.723 52.7163 142.723 52.263V45.735C142.723 45.5197 142.706 45.344 142.672 45.208C142.649 45.0607 142.598 44.9473 142.519 44.868C142.439 44.7773 142.32 44.715 142.162 44.681C142.003 44.647 141.799 44.63 141.55 44.63H140.836C140.45 44.63 140.207 44.732 140.105 44.936C140.003 45.14 139.952 45.48 139.952 45.956V45.99C139.963 46.228 139.867 46.3753 139.663 46.432C139.47 46.4887 139.26 46.517 139.034 46.517C138.807 46.517 138.597 46.4887 138.405 46.432C138.212 46.3753 138.116 46.2337 138.116 46.007V45.854C138.116 45.276 138.167 44.8057 138.269 44.443C138.371 44.0803 138.529 43.8027 138.745 43.61C138.96 43.406 139.232 43.27 139.561 43.202C139.889 43.134 140.286 43.1 140.751 43.1H141.635ZM147.13 43.559C147.13 43.3437 147.221 43.2133 147.402 43.168C147.595 43.1113 147.805 43.083 148.031 43.083C148.258 43.083 148.468 43.1113 148.66 43.168C148.864 43.2247 148.966 43.3493 148.966 43.542V43.644C148.966 43.9273 148.989 44.1483 149.034 44.307C149.08 44.4657 149.216 44.5847 149.442 44.664C149.624 44.732 149.794 44.8057 149.952 44.885C150.111 44.9643 150.247 45.072 150.36 45.208C150.485 45.3327 150.576 45.5027 150.632 45.718C150.7 45.9333 150.734 46.211 150.734 46.551C151.142 46.5737 151.46 46.6643 151.686 46.823C151.924 46.9703 152.1 47.163 152.213 47.401C152.338 47.6277 152.412 47.8827 152.434 48.166C152.468 48.4493 152.485 48.727 152.485 48.999V52.246C152.485 52.8353 152.451 53.3113 152.383 53.674C152.327 54.0253 152.202 54.303 152.009 54.507C151.817 54.6997 151.545 54.83 151.193 54.898C150.842 54.966 150.377 55 149.799 55H148.83C148.332 55 147.907 54.9717 147.555 54.915C147.215 54.8583 146.938 54.7393 146.722 54.558C146.507 54.3653 146.348 54.0877 146.246 53.725C146.156 53.3623 146.11 52.8693 146.11 52.246V48.965C146.11 48.489 146.144 48.0923 146.212 47.775C146.28 47.4577 146.416 47.2083 146.62 47.027C146.836 46.8343 147.13 46.6983 147.504 46.619C147.89 46.5397 148.394 46.5 149.017 46.5C148.995 46.1373 148.921 45.8767 148.796 45.718C148.672 45.548 148.496 45.429 148.269 45.361C147.929 45.2703 147.652 45.106 147.436 44.868C147.232 44.6187 147.13 44.2107 147.13 43.644V43.559ZM147.963 52.28C147.975 52.5407 147.997 52.756 148.031 52.926C148.065 53.0847 148.122 53.2093 148.201 53.3C148.281 53.3907 148.388 53.453 148.524 53.487C148.672 53.5097 148.864 53.521 149.102 53.521H149.459C149.709 53.521 149.913 53.5097 150.071 53.487C150.23 53.453 150.349 53.3907 150.428 53.3C150.519 53.198 150.576 53.062 150.598 52.892C150.632 52.722 150.649 52.4897 150.649 52.195V49.237C150.649 48.999 150.638 48.8007 150.615 48.642C150.593 48.4833 150.542 48.3587 150.462 48.268C150.383 48.166 150.264 48.098 150.105 48.064C149.947 48.03 149.726 48.013 149.442 48.013H149.153C148.881 48.013 148.666 48.03 148.507 48.064C148.36 48.098 148.241 48.1603 148.15 48.251C148.071 48.3303 148.02 48.4437 147.997 48.591C147.975 48.727 147.963 48.9027 147.963 49.118V52.28ZM157.784 43.1C158.408 43.1 158.889 43.1737 159.229 43.321C159.581 43.457 159.836 43.6497 159.994 43.899C160.153 44.137 160.244 44.426 160.266 44.766C160.3 45.106 160.317 45.4687 160.317 45.854V54.575C160.317 54.7677 160.227 54.8867 160.045 54.932C159.864 54.9773 159.66 55 159.433 55C159.207 55 158.997 54.9773 158.804 54.932C158.623 54.8867 158.532 54.7677 158.532 54.575V45.752C158.532 45.514 158.515 45.3157 158.481 45.157C158.459 44.9983 158.408 44.8737 158.328 44.783C158.26 44.6923 158.158 44.63 158.022 44.596C157.886 44.562 157.711 44.545 157.495 44.545H156.951C156.725 44.545 156.543 44.562 156.407 44.596C156.283 44.63 156.181 44.6923 156.101 44.783C156.022 44.8737 155.971 45.0097 155.948 45.191C155.926 45.361 155.914 45.582 155.914 45.854V54.592C155.914 54.7733 155.818 54.8867 155.625 54.932C155.444 54.9773 155.24 55 155.013 55C154.787 55 154.583 54.9773 154.401 54.932C154.22 54.8867 154.129 54.7733 154.129 54.592V45.752C154.129 45.2873 154.158 44.8907 154.214 44.562C154.271 44.222 154.384 43.9443 154.554 43.729C154.736 43.5137 154.991 43.355 155.319 43.253C155.659 43.151 156.107 43.1 156.662 43.1H157.784Z" fill="#31363C"/>
<path d="M28.7986 37H1.70463V5.582H7.17863V31.526H28.7986V37ZM39.2608 37H33.7868V5.582H39.2608V37ZM74.9948 11.056H62.6208V37H57.1928V11.056H44.7728V5.582H74.9948V11.056Z" fill="#31363C"/>
<path d="M84.1611 34.332C84.1611 35.16 83.9004 35.8347 83.3791 36.356C82.8577 36.8773 82.1831 37.138 81.3551 37.138C80.5577 37.138 79.8831 36.8773 79.3311 36.356C78.8097 35.8347 78.5491 35.16 78.5491 34.332C78.5491 33.5347 78.8097 32.8753 79.3311 32.354C79.8831 31.8327 80.5577 31.572 81.3551 31.572C82.1831 31.572 82.8577 31.8327 83.3791 32.354C83.9004 32.8753 84.1611 33.5347 84.1611 34.332Z" fill="#31363C"/>
<path d="M126.633 37H106.669C102.099 37 98.3121 35.482 95.3067 32.446C92.3321 29.41 90.8447 25.5767 90.8447 20.946C90.8447 16.346 92.3167 12.6353 95.2607 9.814C98.2354 6.99267 102.038 5.582 106.669 5.582H124.425V11.056H106.669C103.663 11.056 101.179 12.022 99.2167 13.954C97.2847 15.886 96.3187 18.37 96.3187 21.406C96.3187 24.4113 97.2847 26.8493 99.2167 28.72C101.179 30.5907 103.663 31.526 106.669 31.526H121.159V24.672H106.255V19.658H126.633V37ZM157.32 23.798H139.38V18.324H157.32V23.798ZM158.746 37H131.606V5.582H158.746V11.056H137.08V31.526H158.746V37Z" fill="#80C554"/>
</svg>
