<svg width="17" height="22" viewBox="0 0 17 22" fill="none" xmlns="http://www.w3.org/2000/svg">
<path d="M1 3.98963C1 3.01847 1 2.53289 1.20249 2.26522C1.37889 2.03203 1.64852 1.88773 1.9404 1.8703C2.27544 1.8503 2.67946 2.11965 3.48752 2.65835L14.0031 9.66873C14.6708 10.1139 15.0046 10.3364 15.1209 10.6169C15.2227 10.8622 15.2227 11.1378 15.1209 11.3831C15.0046 11.6636 14.6708 11.8862 14.0031 12.3313L3.48752 19.3417C2.67946 19.8804 2.27544 20.1497 1.9404 20.1297C1.64852 20.1123 1.37889 19.968 1.20249 19.7348C1 19.4671 1 18.9815 1 18.0104V3.98963Z" stroke="#31363C" stroke-width="2" stroke-linecap="round" stroke-linejoin="round"/>
</svg>
